<?xml version="1.0" standalone="no"?>
<!DOCTYPE svg PUBLIC "-//W3C//DTD SVG 20010904//EN"
 "http://www.w3.org/TR/2001/REC-SVG-20010904/DTD/svg10.dtd">
<svg version="1.0" xmlns="http://www.w3.org/2000/svg"
 width="128.000000pt" height="128.000000pt" viewBox="0 0 128.000000 128.000000"
 preserveAspectRatio="xMidYMid meet">

<g transform="translate(0.000000,128.000000) scale(0.100000,-0.100000)"
fill="#000000" stroke="none">
<path d="M538 1227 c-23 -21 -32 -37 -93 -169 -27 -59 -63 -93 -115 -108 -28
-8 -30 -7 -30 20 0 16 4 39 9 52 22 54 25 64 37 124 5 26 2 32 -15 37 -18 4
-21 1 -21 -29 0 -19 -13 -60 -30 -91 -18 -33 -30 -71 -30 -93 0 -37 -1 -38
-45 -44 -24 -4 -47 -12 -51 -17 -3 -6 -17 -8 -30 -5 -40 10 -30 -26 13 -46 34
-16 38 -16 73 2 21 10 58 24 83 31 28 7 52 20 61 34 8 12 29 25 47 29 19 4 47
21 66 42 28 31 37 35 70 32 29 -2 38 1 41 14 2 11 -6 18 -27 23 -17 3 -35 4
-41 0 -15 -9 -12 8 10 59 10 25 17 53 14 61 -4 9 3 19 20 26 14 7 26 18 26 26
0 19 -14 16 -42 -10z"/>
<path d="M587 974 c-25 -19 -48 -42 -51 -50 -11 -28 20 -74 62 -95 l42 -21 44
21 c37 18 45 28 51 59 6 35 4 39 -40 80 -26 23 -50 42 -54 42 -4 0 -28 -16
-54 -36z"/>
</g>
</svg>
